<?xml version="1.0" encoding="UTF-8"?>
<svg xmlns="http://www.w3.org/2000/svg" width="320" height="180" viewBox="0 0 320 180" role="img" aria-label="KBStream TV banner">
<title>KBStream TV banner</title>
<defs><linearGradient id="g1" gradientUnits="userSpaceOnUse" x1="0.00" y1="0.00" x2="0.00" y2="180.00"><stop offset="0" stop-color="#1B2434" stop-opacity="1.000"/><stop offset="1" stop-color="#090C12" stop-opacity="1.000"/></linearGradient><linearGradient id="g2" gradientUnits="userSpaceOnUse" x1="95.08" y1="90.00" x2="275.20" y2="90.00"><stop offset="0" stop-color="#F7CE86" stop-opacity="0.110"/><stop offset="1" stop-color="#F7CE86" stop-opacity="0.000"/></linearGradient><radialGradient id="g3" gradientUnits="userSpaceOnUse" cx="66.08" cy="84.00" r="132.00"><stop offset="0.00" stop-color="#E8A33D" stop-opacity="0.160"/><stop offset="0.25" stop-color="#E8A33D" stop-opacity="0.098"/><stop offset="0.50" stop-color="#E8A33D" stop-opacity="0.049"/><stop offset="0.75" stop-color="#E8A33D" stop-opacity="0.015"/><stop offset="1.00" stop-color="#E8A33D" stop-opacity="0.000"/></radialGradient><radialGradient id="g4" gradientUnits="userSpaceOnUse" cx="66.08" cy="86.52" r="35.96"><stop offset="0.00" stop-color="#E8A33D" stop-opacity="0.110"/><stop offset="0.25" stop-color="#E8A33D" stop-opacity="0.067"/><stop offset="0.50" stop-color="#E8A33D" stop-opacity="0.034"/><stop offset="0.75" stop-color="#E8A33D" stop-opacity="0.010"/><stop offset="1.00" stop-color="#E8A33D" stop-opacity="0.000"/></radialGradient><linearGradient id="g5" gradientUnits="userSpaceOnUse" x1="0.00" y1="61.00" x2="0.00" y2="119.00"><stop offset="0" stop-color="#E8A33D" stop-opacity="1.000"/><stop offset="1" stop-color="#CE872A" stop-opacity="1.000"/></linearGradient><linearGradient id="g6" gradientUnits="userSpaceOnUse" x1="0.00" y1="61.00" x2="0.00" y2="119.00"><stop offset="0" stop-color="#F7CE86" stop-opacity="1.000"/><stop offset="1" stop-color="#E8A33D" stop-opacity="1.000"/></linearGradient></defs>
<path d="M 0.00 0.00 320.00 0.00 320.00 180.00 0.00 180.00 Z" fill="url(#g1)"/>
<path d="M 95.08 90.00 320.00 12.00 320.00 168.00 Z" fill="url(#g2)"/>
<path d="M 198.08 90.00 197.99 94.61 197.75 99.21 197.35 103.80 196.79 108.37 196.07 112.92 195.19 117.44 194.15 121.93 192.96 126.38 191.61 130.79 190.11 135.15 188.46 139.45 186.66 143.69 184.72 147.86 182.62 151.97 180.39 156.00 178.02 159.95 175.51 163.81 172.87 167.59 170.09 171.27 167.19 174.85 164.17 178.33 161.03 181.69 157.77 184.95 154.40 188.10 150.92 191.12 147.34 194.02 143.66 196.79 139.89 199.43 136.02 201.94 132.08 204.32 128.05 206.55 123.94 208.64 119.76 210.59 115.52 212.39 111.22 214.04 106.87 215.54 102.46 216.89 98.01 218.08 93.52 219.12 89.00 219.99 84.45 220.72 79.87 221.28 75.28 221.68 70.68 221.92 66.08 222.00 61.47 221.92 56.87 221.68 52.28 221.28 47.70 220.72 43.15 219.99 38.63 219.12 34.14 218.08 29.69 216.89 25.28 215.54 20.93 214.04 16.63 212.39 12.39 210.59 8.21 208.64 4.10 206.55 0.08 204.32 -3.87 201.94 -7.74 199.43 -11.51 196.79 -15.19 194.02 -18.77 191.12 -22.25 188.10 -25.62 184.95 -28.88 181.69 -32.02 178.33 -35.04 174.85 -37.94 171.27 -40.72 167.59 -43.36 163.81 -45.87 159.95 -48.24 156.00 -50.47 151.97 -52.57 147.86 -54.51 143.69 -56.31 139.45 -57.96 135.15 -59.46 130.79 -60.81 126.38 -62.00 121.93 -63.04 117.44 -63.92 112.92 -64.64 108.37 -65.20 103.80 -65.60 99.21 -65.84 94.61 -65.92 90.00 -65.84 85.39 -65.60 80.79 -65.20 76.20 -64.64 71.63 -63.92 67.08 -63.04 62.56 -62.00 58.07 -60.81 53.62 -59.46 49.21 -57.96 44.85 -56.31 40.55 -54.51 36.31 -52.57 32.14 -50.47 28.03 -48.24 24.00 -45.87 20.05 -43.36 16.19 -40.72 12.41 -37.94 8.73 -35.04 5.15 -32.02 1.67 -28.88 -1.69 -25.62 -4.95 -22.25 -8.10 -18.77 -11.12 -15.19 -14.02 -11.51 -16.79 -7.74 -19.43 -3.87 -21.94 0.08 -24.32 4.10 -26.55 8.21 -28.64 12.39 -30.59 16.63 -32.39 20.93 -34.04 25.28 -35.54 29.69 -36.89 34.14 -38.08 38.63 -39.12 43.15 -39.99 47.70 -40.72 52.28 -41.28 56.87 -41.68 61.47 -41.92 66.08 -42.00 70.68 -41.92 75.28 -41.68 79.87 -41.28 84.45 -40.72 89.00 -39.99 93.52 -39.12 98.01 -38.08 102.46 -36.89 106.87 -35.54 111.22 -34.04 115.52 -32.39 119.76 -30.59 123.94 -28.64 128.05 -26.55 132.08 -24.32 136.02 -21.94 139.89 -19.43 143.66 -16.79 147.34 -14.02 150.92 -11.12 154.40 -8.10 157.77 -4.95 161.03 -1.69 164.17 1.67 167.19 5.15 170.09 8.73 172.87 12.41 175.51 16.19 178.02 20.05 180.39 24.00 182.62 28.03 184.72 32.14 186.66 36.31 188.46 40.55 190.11 44.85 191.61 49.21 192.96 53.62 194.15 58.07 195.19 62.56 196.07 67.08 196.79 71.63 197.35 76.20 197.75 80.79 197.99 85.39 Z" fill="url(#g3)"/>
<path d="M 91.02 90.00 91.00 90.87 90.95 91.74 90.88 92.61 90.77 93.47 90.64 94.33 90.47 95.19 90.27 96.03 90.05 96.87 89.79 97.71 89.51 98.53 89.20 99.34 88.86 100.14 88.49 100.93 88.10 101.71 87.67 102.47 87.23 103.22 86.75 103.95 86.25 104.66 85.73 105.35 85.18 106.03 84.61 106.69 84.02 107.32 83.40 107.94 82.76 108.53 82.11 109.11 81.43 109.65 80.73 110.18 80.02 110.68 79.29 111.15 78.55 111.60 77.78 112.02 77.01 112.42 76.22 112.78 75.42 113.12 74.61 113.44 73.78 113.72 72.95 113.97 72.11 114.20 71.26 114.40 70.41 114.56 69.55 114.70 68.68 114.80 67.81 114.88 66.95 114.92 66.08 114.94 65.20 114.92 64.34 114.88 63.47 114.80 62.60 114.70 61.74 114.56 60.89 114.40 60.04 114.20 59.20 113.97 58.37 113.72 57.55 113.44 56.73 113.12 55.93 112.78 55.14 112.42 54.37 112.02 53.61 111.60 52.86 111.15 52.13 110.68 51.42 110.18 50.72 109.65 50.04 109.11 49.39 108.53 48.75 107.94 48.13 107.32 47.54 106.69 46.97 106.03 46.42 105.35 45.90 104.66 45.40 103.95 44.92 103.22 44.48 102.47 44.05 101.71 43.66 100.93 43.29 100.14 42.95 99.34 42.64 98.53 42.36 97.71 42.10 96.87 41.88 96.03 41.68 95.19 41.51 94.33 41.38 93.47 41.27 92.61 41.20 91.74 41.15 90.87 41.14 90.00 41.15 89.13 41.20 88.26 41.27 87.39 41.38 86.53 41.51 85.67 41.68 84.81 41.88 83.97 42.10 83.13 42.36 82.29 42.64 81.47 42.95 80.66 43.29 79.86 43.66 79.07 44.05 78.29 44.48 77.53 44.92 76.78 45.40 76.05 45.90 75.34 46.42 74.65 46.97 73.97 47.54 73.31 48.13 72.68 48.75 72.06 49.39 71.47 50.04 70.89 50.72 70.35 51.42 69.82 52.13 69.32 52.86 68.85 53.61 68.40 54.37 67.98 55.14 67.58 55.93 67.22 56.73 66.88 57.55 66.56 58.37 66.28 59.20 66.03 60.04 65.80 60.89 65.60 61.74 65.44 62.60 65.30 63.47 65.20 64.34 65.12 65.20 65.08 66.08 65.06 66.95 65.08 67.81 65.12 68.68 65.20 69.55 65.30 70.41 65.44 71.26 65.60 72.11 65.80 72.95 66.03 73.78 66.28 74.61 66.56 75.42 66.88 76.22 67.22 77.01 67.58 77.78 67.98 78.55 68.40 79.29 68.85 80.02 69.32 80.73 69.82 81.43 70.35 82.11 70.89 82.76 71.47 83.40 72.06 84.02 72.68 84.61 73.31 85.18 73.97 85.73 74.65 86.25 75.34 86.75 76.05 87.23 76.78 87.67 77.53 88.10 78.29 88.49 79.07 88.86 79.86 89.20 80.66 89.51 81.47 89.79 82.29 90.05 83.13 90.27 83.97 90.47 84.81 90.64 85.67 90.77 86.53 90.88 87.39 90.95 88.26 91.00 89.13 Z" fill="url(#g4)"/>
<path d="M 95.08 90.00 95.07 90.76 95.04 91.52 94.99 92.28 94.92 93.03 94.83 93.79 94.72 94.54 94.59 95.28 94.44 96.03 94.27 96.77 94.09 97.51 93.88 98.24 93.66 98.96 93.41 99.68 93.15 100.39 92.87 101.10 92.57 101.80 92.25 102.48 91.91 103.17 91.56 103.84 91.19 104.50 90.80 105.15 90.40 105.79 89.97 106.43 89.54 107.05 89.08 107.65 88.61 108.25 88.13 108.83 87.63 109.40 87.11 109.96 86.58 110.51 86.04 111.04 85.48 111.55 84.91 112.05 84.33 112.54 83.73 113.01 83.12 113.46 82.50 113.90 81.87 114.32 81.23 114.73 80.58 115.11 79.91 115.49 79.24 115.84 78.56 116.17 77.87 116.49 77.17 116.79 76.47 117.07 75.76 117.34 75.04 117.58 74.31 117.81 73.58 118.01 72.84 118.20 72.10 118.37 71.36 118.51 70.61 118.64 69.86 118.75 69.11 118.84 68.35 118.91 67.59 118.96 66.83 118.99 66.08 119.00 65.32 118.99 64.56 118.96 63.80 118.91 63.04 118.84 62.29 118.75 61.54 118.64 60.79 118.51 60.05 118.37 59.31 118.20 58.57 118.01 57.84 117.81 57.11 117.58 56.39 117.34 55.68 117.07 54.98 116.79 54.28 116.49 53.59 116.17 52.91 115.84 52.24 115.49 51.58 115.11 50.92 114.73 50.28 114.32 49.65 113.90 49.03 113.46 48.42 113.01 47.82 112.54 47.24 112.05 46.67 111.55 46.11 111.04 45.57 110.51 45.04 109.96 44.52 109.40 44.02 108.83 43.54 108.25 43.07 107.65 42.61 107.05 42.18 106.43 41.75 105.79 41.35 105.15 40.96 104.50 40.59 103.84 40.24 103.17 39.90 102.48 39.58 101.80 39.28 101.10 39.00 100.39 38.74 99.68 38.49 98.96 38.27 98.24 38.06 97.51 37.88 96.77 37.71 96.03 37.56 95.28 37.43 94.54 37.32 93.79 37.23 93.03 37.16 92.28 37.11 91.52 37.08 90.76 37.08 90.00 37.08 89.24 37.11 88.48 37.16 87.72 37.23 86.97 37.32 86.21 37.43 85.46 37.56 84.72 37.71 83.97 37.88 83.23 38.06 82.49 38.27 81.76 38.49 81.04 38.74 80.32 39.00 79.61 39.28 78.90 39.58 78.20 39.90 77.52 40.24 76.83 40.59 76.16 40.96 75.50 41.35 74.85 41.75 74.21 42.18 73.57 42.61 72.95 43.07 72.35 43.54 71.75 44.02 71.17 44.52 70.60 45.04 70.04 45.57 69.49 46.11 68.96 46.67 68.45 47.24 67.95 47.82 67.46 48.42 66.99 49.03 66.54 49.65 66.10 50.28 65.68 50.92 65.27 51.58 64.89 52.24 64.51 52.91 64.16 53.59 63.83 54.28 63.51 54.98 63.21 55.68 62.93 56.39 62.66 57.11 62.42 57.84 62.19 58.57 61.99 59.31 61.80 60.05 61.63 60.79 61.49 61.54 61.36 62.29 61.25 63.04 61.16 63.80 61.09 64.56 61.04 65.32 61.01 66.08 61.00 66.83 61.01 67.59 61.04 68.35 61.09 69.11 61.16 69.86 61.25 70.61 61.36 71.36 61.49 72.10 61.63 72.84 61.80 73.58 61.99 74.31 62.19 75.04 62.42 75.76 62.66 76.47 62.93 77.17 63.21 77.87 63.51 78.56 63.83 79.24 64.16 79.91 64.51 80.58 64.89 81.23 65.27 81.87 65.68 82.50 66.10 83.12 66.54 83.73 66.99 84.33 67.46 84.91 67.95 85.48 68.45 86.04 68.96 86.58 69.49 87.11 70.04 87.63 70.60 88.13 71.17 88.61 71.75 89.08 72.35 89.54 72.95 89.97 73.57 90.40 74.21 90.80 74.85 91.19 75.50 91.56 76.16 91.91 76.83 92.25 77.52 92.57 78.20 92.87 78.90 93.15 79.61 93.41 80.32 93.66 81.04 93.88 81.76 94.09 82.49 94.27 83.23 94.44 83.97 94.59 84.72 94.72 85.46 94.83 86.21 94.92 86.97 94.99 87.72 95.04 88.48 95.07 89.24 Z M 91.01 89.35 90.98 88.69 90.94 88.04 90.88 87.39 90.80 86.74 90.71 86.10 90.60 85.46 90.47 84.81 90.33 84.18 90.17 83.55 89.99 82.92 89.79 82.29 89.58 81.67 89.36 81.06 89.12 80.46 88.86 79.86 88.59 79.26 88.30 78.68 87.99 78.10 87.67 77.53 87.34 76.97 86.99 76.42 86.63 75.87 86.25 75.34 85.86 74.82 85.46 74.30 85.04 73.80 84.61 73.31 84.17 72.83 83.71 72.36 83.24 71.91 82.76 71.47 82.27 71.04 81.77 70.62 81.26 70.21 80.73 69.82 80.20 69.45 79.66 69.08 79.11 68.74 78.55 68.40 77.98 68.08 77.40 67.78 76.81 67.49 76.22 67.22 75.62 66.96 75.01 66.72 74.40 66.49 73.78 66.28 73.16 66.09 72.53 65.91 71.90 65.75 71.26 65.60 70.62 65.48 69.98 65.37 69.33 65.27 68.68 65.20 68.03 65.14 67.38 65.09 66.73 65.07 66.08 65.06 65.42 65.07 64.77 65.09 64.12 65.14 63.47 65.20 62.82 65.27 62.17 65.37 61.53 65.48 60.89 65.60 60.25 65.75 59.62 65.91 58.99 66.09 58.37 66.28 57.75 66.49 57.14 66.72 56.53 66.96 55.93 67.22 55.34 67.49 54.75 67.78 54.17 68.08 53.61 68.40 53.04 68.74 52.49 69.08 51.95 69.45 51.42 69.82 50.89 70.21 50.38 70.62 49.88 71.04 49.39 71.47 48.91 71.91 48.44 72.36 47.98 72.83 47.54 73.31 47.11 73.80 46.69 74.30 46.29 74.82 45.90 75.34 45.52 75.87 45.16 76.42 44.81 76.97 44.48 77.53 44.16 78.10 43.85 78.68 43.56 79.26 43.29 79.86 43.03 80.46 42.79 81.06 42.57 81.67 42.36 82.29 42.16 82.92 41.98 83.55 41.82 84.18 41.68 84.81 41.55 85.46 41.44 86.10 41.35 86.74 41.27 87.39 41.21 88.04 41.17 88.69 41.14 89.35 41.14 90.00 41.14 90.65 41.17 91.31 41.21 91.96 41.27 92.61 41.35 93.26 41.44 93.90 41.55 94.54 41.68 95.19 41.82 95.82 41.98 96.45 42.16 97.08 42.36 97.71 42.57 98.33 42.79 98.94 43.03 99.54 43.29 100.14 43.56 100.74 43.85 101.32 44.16 101.90 44.48 102.47 44.81 103.03 45.16 103.58 45.52 104.13 45.90 104.66 46.29 105.18 46.69 105.70 47.11 106.20 47.54 106.69 47.98 107.17 48.44 107.64 48.91 108.09 49.39 108.53 49.88 108.96 50.38 109.38 50.89 109.79 51.42 110.18 51.95 110.55 52.49 110.92 53.04 111.26 53.61 111.60 54.17 111.92 54.75 112.22 55.34 112.51 55.93 112.78 56.53 113.04 57.14 113.28 57.75 113.51 58.37 113.72 58.99 113.91 59.62 114.09 60.25 114.25 60.89 114.40 61.53 114.52 62.17 114.63 62.82 114.73 63.47 114.80 64.12 114.86 64.77 114.91 65.42 114.93 66.08 114.94 66.73 114.93 67.38 114.91 68.03 114.86 68.68 114.80 69.33 114.73 69.98 114.63 70.62 114.52 71.26 114.40 71.90 114.25 72.53 114.09 73.16 113.91 73.78 113.72 74.40 113.51 75.01 113.28 75.62 113.04 76.22 112.78 76.81 112.51 77.40 112.22 77.98 111.92 78.55 111.60 79.11 111.26 79.66 110.92 80.20 110.55 80.73 110.18 81.26 109.79 81.77 109.38 82.27 108.96 82.76 108.53 83.24 108.09 83.71 107.64 84.17 107.17 84.61 106.69 85.04 106.20 85.46 105.70 85.86 105.18 86.25 104.66 86.63 104.13 86.99 103.58 87.34 103.03 87.67 102.47 87.99 101.90 88.30 101.32 88.59 100.74 88.86 100.14 89.12 99.54 89.36 98.94 89.58 98.33 89.79 97.71 89.99 97.08 90.17 96.45 90.33 95.82 90.47 95.19 90.60 94.54 90.71 93.90 90.80 93.26 90.88 92.61 90.94 91.96 90.98 91.31 91.01 90.65 91.02 90.00 Z" fill="url(#g5)"/>
<path d="M 53.96 77.48 54.17 77.48 54.38 77.45 54.58 77.41 54.78 77.35 54.98 77.28 55.16 77.19 55.34 77.08 55.51 76.96 55.67 76.83 55.82 76.69 55.96 76.53 56.08 76.36 56.19 76.19 78.28 88.73 78.18 88.91 78.10 89.10 78.04 89.30 77.99 89.49 77.96 89.70 77.94 89.90 77.94 90.10 77.96 90.30 77.99 90.51 78.04 90.70 78.10 90.90 78.18 91.09 78.28 91.27 56.19 103.81 56.08 103.64 55.96 103.47 55.82 103.31 55.67 103.17 55.51 103.04 55.34 102.92 55.16 102.81 54.98 102.72 54.78 102.65 54.58 102.59 54.38 102.55 54.17 102.52 53.96 102.52 Z" fill="url(#g6)"/>
<path d="M 122.78 94.83 122.78 66.63 129.01 66.63 129.01 78.16 133.75 66.63 139.84 66.63 134.62 79.37 140.08 94.83 133.75 94.83 129.67 82.37 129.01 83.48 129.01 94.83 122.78 94.83 Z M 144.26 94.83 144.26 66.63 151.61 66.63 151.98 66.64 152.39 66.66 152.82 66.68 153.28 66.72 153.77 66.77 154.29 66.83 154.84 66.91 155.42 66.99 156.02 67.08 156.65 67.19 157.15 67.52 157.61 67.87 158.06 68.25 158.49 68.65 158.89 69.09 159.27 69.55 159.64 70.03 159.97 70.54 160.29 71.08 160.59 71.65 160.59 74.01 160.58 74.36 160.55 74.72 160.50 75.09 160.43 75.48 160.34 75.88 160.23 76.29 160.09 76.71 159.94 77.14 159.77 77.59 159.58 78.05 159.22 78.32 158.86 78.56 158.52 78.78 158.19 78.98 157.87 79.16 157.57 79.31 157.27 79.44 156.98 79.54 156.71 79.63 156.45 79.69 156.78 79.74 157.12 79.83 157.48 79.95 157.85 80.09 158.23 80.27 158.62 80.48 159.03 80.71 159.44 80.98 159.87 81.28 160.31 81.60 160.53 82.17 160.72 82.71 160.90 83.24 161.05 83.75 161.17 84.25 161.28 84.73 161.36 85.19 161.41 85.64 161.45 86.06 161.46 86.48 161.45 86.93 161.41 87.39 161.36 87.88 161.28 88.39 161.17 88.91 161.05 89.46 160.90 90.03 160.72 90.61 160.53 91.21 160.31 91.84 159.87 92.23 159.41 92.60 158.92 92.96 158.42 93.29 157.90 93.60 157.36 93.89 156.79 94.15 156.21 94.40 155.61 94.63 154.98 94.83 152.93 94.83 144.26 94.83 Z M 150.49 90.48 151.82 90.48 152.22 90.46 152.62 90.40 153.00 90.29 153.38 90.15 153.75 89.96 154.11 89.73 154.45 89.46 154.79 89.14 155.12 88.79 155.44 88.39 155.44 86.37 155.43 86.05 155.41 85.72 155.37 85.39 155.32 85.05 155.26 84.70 155.19 84.35 155.10 83.99 154.99 83.63 154.87 83.26 154.74 82.89 154.42 82.73 154.11 82.58 153.80 82.45 153.50 82.33 153.20 82.24 152.91 82.16 152.62 82.10 152.33 82.06 152.05 82.03 151.78 82.02 150.49 82.02 150.49 90.48 Z M 150.49 77.91 151.71 77.91 152.00 77.90 152.28 77.88 152.57 77.83 152.86 77.77 153.15 77.70 153.44 77.60 153.73 77.49 154.02 77.36 154.31 77.21 154.60 77.04 154.70 76.71 154.79 76.39 154.87 76.08 154.94 75.78 154.99 75.49 155.04 75.21 155.08 74.94 155.10 74.68 155.12 74.43 155.12 74.19 155.12 73.96 155.09 73.73 155.05 73.48 154.99 73.24 154.92 72.98 154.83 72.71 154.73 72.44 154.61 72.16 154.47 71.87 154.32 71.58 154.01 71.43 153.71 71.30 153.42 71.19 153.13 71.09 152.85 71.00 152.58 70.93 152.32 70.88 152.06 70.84 151.81 70.82 151.57 70.81 150.49 70.81 150.49 77.91 Z M 173.96 95.25 173.42 95.23 172.86 95.17 172.29 95.08 171.70 94.95 171.09 94.78 170.46 94.57 169.81 94.33 169.14 94.05 168.46 93.73 167.76 93.37 167.42 92.59 167.10 91.83 166.83 91.08 166.59 90.35 166.38 89.64 166.20 88.94 166.06 88.25 165.96 87.59 165.88 86.94 165.85 86.30 171.17 85.50 171.18 85.87 171.21 86.24 171.24 86.63 171.29 87.02 171.35 87.42 171.41 87.82 171.49 88.24 171.58 88.67 171.69 89.10 171.80 89.54 172.01 89.73 172.22 89.89 172.42 90.04 172.61 90.16 172.80 90.27 172.98 90.36 173.16 90.43 173.33 90.48 173.49 90.51 173.64 90.52 173.84 90.50 174.02 90.46 174.19 90.40 174.36 90.30 174.52 90.18 174.68 90.04 174.82 89.87 174.96 89.67 175.09 89.44 175.21 89.19 175.21 88.46 175.19 88.11 175.14 87.74 175.06 87.36 174.94 86.96 174.79 86.56 174.61 86.13 174.39 85.70 174.14 85.25 173.86 84.79 173.54 84.32 172.11 83.10 169.68 80.98 169.35 80.68 169.01 80.35 168.66 79.97 168.30 79.56 167.93 79.10 167.54 78.60 167.14 78.05 166.73 77.47 166.31 76.84 165.88 76.17 165.88 73.63 165.92 72.91 166.05 72.19 166.26 71.46 166.56 70.73 166.94 69.99 167.41 69.25 167.96 68.51 168.60 67.76 169.32 67.01 170.13 66.25 173.78 66.25 174.24 66.27 174.71 66.31 175.18 66.39 175.67 66.50 176.17 66.63 176.67 66.80 177.19 67.00 177.72 67.23 178.25 67.49 178.80 67.78 179.07 68.28 179.33 68.78 179.57 69.29 179.79 69.80 180.00 70.32 180.18 70.85 180.35 71.38 180.50 71.91 180.63 72.46 180.75 73.00 180.78 74.26 175.42 74.92 175.41 74.66 175.40 74.39 175.38 74.11 175.36 73.82 175.33 73.52 175.30 73.20 175.27 72.87 175.23 72.53 175.19 72.18 175.14 71.82 174.99 71.63 174.83 71.46 174.68 71.31 174.52 71.17 174.37 71.06 174.21 70.97 174.05 70.90 173.89 70.85 173.73 70.82 173.57 70.81 173.40 70.83 173.23 70.87 173.06 70.94 172.89 71.04 172.72 71.18 172.56 71.34 172.39 71.53 172.23 71.75 172.06 71.99 171.90 72.27 171.90 73.00 171.92 73.32 171.96 73.65 172.04 73.98 172.14 74.32 172.28 74.67 172.44 75.03 172.64 75.40 172.86 75.78 173.12 76.16 173.40 76.55 174.62 77.63 176.95 79.69 177.33 80.03 177.72 80.41 178.12 80.84 178.54 81.33 178.97 81.86 179.42 82.43 179.88 83.06 180.35 83.73 180.84 84.45 181.34 85.22 181.34 88.15 181.32 88.56 181.27 88.99 181.18 89.45 181.05 89.94 180.89 90.45 180.69 90.98 180.45 91.54 180.18 92.13 179.87 92.74 179.53 93.37 178.88 93.73 178.25 94.05 177.64 94.33 177.05 94.57 176.48 94.78 175.93 94.95 175.41 95.08 174.90 95.17 174.42 95.23 173.96 95.25 Z M 188.65 94.83 188.65 71.26 184.40 71.26 184.40 66.63 199.13 66.63 199.13 71.26 194.92 71.26 194.92 94.83 188.65 94.83 Z M 203.34 94.83 203.34 66.63 211.10 66.63 211.69 66.65 212.30 66.68 212.94 66.75 213.60 66.83 214.29 66.95 215.01 67.08 215.75 67.25 216.52 67.44 217.31 67.65 218.14 67.89 218.58 68.53 218.98 69.17 219.33 69.80 219.63 70.43 219.89 71.05 220.10 71.67 220.26 72.28 220.38 72.89 220.45 73.49 220.47 74.08 220.46 74.44 220.45 74.82 220.42 75.22 220.38 75.63 220.33 76.07 220.27 76.52 220.20 77.00 220.11 77.49 220.02 78.01 219.91 78.54 219.61 78.92 219.32 79.28 219.02 79.61 218.73 79.92 218.44 80.19 218.15 80.44 217.87 80.67 217.58 80.87 217.30 81.04 217.02 81.19 220.89 94.83 214.45 94.83 211.35 82.19 209.57 82.19 209.57 94.83 203.34 94.83 Z M 209.57 78.61 211.31 78.61 211.58 78.60 211.85 78.57 212.12 78.52 212.39 78.46 212.67 78.37 212.95 78.27 213.23 78.15 213.52 78.01 213.81 77.85 214.10 77.67 214.21 77.32 214.31 76.98 214.40 76.65 214.48 76.33 214.54 76.02 214.59 75.73 214.64 75.44 214.67 75.16 214.68 74.90 214.69 74.64 214.68 74.28 214.64 73.91 214.57 73.54 214.48 73.16 214.36 72.78 214.21 72.39 214.04 72.00 213.84 71.61 213.62 71.21 213.37 70.81 211.59 70.81 209.57 70.81 209.57 78.61 Z M 225.97 94.83 225.97 66.63 238.64 66.63 238.64 70.88 232.20 70.88 232.20 77.88 237.11 77.88 237.11 82.19 232.20 82.19 232.20 90.62 238.71 90.62 238.71 94.83 225.97 94.83 Z M 241.91 94.83 247.24 66.63 254.34 66.63 259.60 94.83 253.86 94.83 252.92 88.88 248.77 88.88 247.80 94.83 241.91 94.83 Z M 249.33 85.15 252.32 85.15 250.83 74.15 249.33 85.15 Z M 264.09 94.83 264.58 66.63 271.26 66.63 274.36 83.03 277.70 66.63 284.14 66.63 284.63 94.83 280.21 94.83 279.69 76.07 276.41 94.83 272.48 94.83 269.00 75.93 268.58 94.83 264.09 94.83 Z" fill="F3EFE4"/>
<path d="M 121.62 106.33 123.00 106.33 124.04 111.40 125.11 106.33 126.46 106.33 126.60 113.65 125.60 113.65 125.49 108.56 124.45 113.65 123.65 113.65 122.59 108.55 122.49 113.65 121.49 113.65 121.62 106.33 Z M 132.75 113.75 132.52 113.74 132.30 113.70 132.08 113.64 131.86 113.55 131.65 113.45 131.44 113.31 131.23 113.15 131.03 112.97 130.83 112.76 130.63 112.53 130.63 111.36 130.63 108.61 130.64 108.38 130.67 108.14 130.72 107.91 130.79 107.67 130.88 107.44 130.98 107.20 131.11 106.96 131.26 106.73 131.42 106.49 131.61 106.25 132.75 106.25 132.97 106.26 133.19 106.30 133.41 106.36 133.62 106.44 133.84 106.55 134.05 106.68 134.25 106.83 134.45 107.01 134.65 107.22 134.85 107.44 134.85 108.61 134.85 111.36 134.84 111.59 134.81 111.82 134.76 112.06 134.69 112.30 134.60 112.54 134.50 112.78 134.37 113.02 134.22 113.26 134.05 113.50 133.87 113.75 132.75 113.75 Z M 132.75 112.77 132.83 112.76 132.92 112.74 133.00 112.71 133.08 112.68 133.15 112.62 133.23 112.56 133.30 112.49 133.37 112.41 133.43 112.31 133.50 112.20 133.50 111.67 133.50 108.30 133.49 108.19 133.48 108.09 133.47 107.98 133.45 107.87 133.42 107.77 133.39 107.66 133.35 107.55 133.30 107.44 133.25 107.33 133.20 107.23 132.75 107.23 132.66 107.23 132.57 107.25 132.49 107.28 132.41 107.31 132.33 107.36 132.26 107.42 132.18 107.50 132.12 107.58 132.05 107.67 131.99 107.78 131.99 108.30 131.99 111.67 131.99 111.78 132.00 111.89 132.01 111.99 132.04 112.10 132.06 112.21 132.10 112.32 132.14 112.43 132.18 112.54 132.24 112.65 132.29 112.77 132.75 112.77 Z M 138.56 106.33 139.74 106.33 140.70 111.51 141.62 106.33 142.82 106.33 141.34 113.65 140.03 113.65 138.56 106.33 Z M 146.67 106.33 147.99 106.33 147.99 113.65 146.67 113.65 146.67 106.33 Z M 152.19 106.33 155.26 106.33 155.26 107.27 153.52 107.27 153.52 109.38 154.89 109.38 154.89 110.31 153.52 110.31 153.52 112.74 155.28 112.74 155.28 113.65 152.19 113.65 152.19 106.33 Z M 160.97 113.75 160.77 113.74 160.57 113.71 160.37 113.65 160.17 113.57 159.98 113.47 159.78 113.35 159.58 113.20 159.38 113.03 159.19 112.84 158.99 112.63 158.94 111.52 160.09 111.29 160.10 111.43 160.12 111.57 160.14 111.71 160.17 111.85 160.21 112.00 160.25 112.14 160.31 112.28 160.37 112.43 160.43 112.57 160.51 112.72 160.92 112.72 160.98 112.72 161.05 112.71 161.11 112.69 161.17 112.66 161.23 112.63 161.29 112.59 161.35 112.54 161.41 112.48 161.47 112.42 161.53 112.35 161.53 112.03 161.52 111.94 161.51 111.85 161.49 111.76 161.47 111.66 161.43 111.56 161.39 111.45 161.34 111.34 161.28 111.23 161.21 111.11 161.14 110.99 160.72 110.63 159.80 109.83 159.72 109.75 159.63 109.66 159.55 109.57 159.46 109.46 159.38 109.35 159.29 109.23 159.21 109.09 159.12 108.95 159.04 108.80 158.95 108.64 158.95 108.06 158.96 107.88 158.99 107.71 159.04 107.53 159.11 107.36 159.20 107.18 159.31 106.99 159.44 106.81 159.59 106.63 159.77 106.44 159.96 106.25 160.84 106.25 161.03 106.26 161.22 106.29 161.40 106.35 161.58 106.42 161.76 106.52 161.93 106.64 162.11 106.78 162.28 106.94 162.45 107.12 162.61 107.33 162.68 108.24 161.53 108.44 161.52 108.32 161.51 108.20 161.49 108.08 161.47 107.96 161.44 107.84 161.40 107.72 161.37 107.60 161.32 107.48 161.27 107.36 161.22 107.23 160.81 107.23 160.76 107.24 160.70 107.25 160.64 107.27 160.58 107.30 160.52 107.33 160.45 107.37 160.39 107.43 160.33 107.48 160.26 107.55 160.20 107.62 160.20 107.92 160.20 107.99 160.21 108.07 160.22 108.14 160.24 108.22 160.27 108.31 160.30 108.39 160.34 108.48 160.38 108.57 160.43 108.66 160.48 108.75 160.80 109.02 161.71 109.83 161.81 109.92 161.92 110.03 162.02 110.15 162.13 110.27 162.24 110.41 162.35 110.56 162.46 110.73 162.57 110.90 162.69 111.09 162.80 111.28 162.80 111.95 162.80 112.06 162.78 112.17 162.76 112.29 162.73 112.42 162.69 112.55 162.64 112.68 162.58 112.83 162.51 112.98 162.43 113.13 162.34 113.29 162.18 113.38 162.02 113.46 161.87 113.52 161.72 113.58 161.58 113.63 161.45 113.68 161.32 113.71 161.20 113.73 161.08 113.75 160.97 113.75 Z M 171.69 109.66 172.89 109.66 172.89 110.84 171.69 110.84 171.69 109.66 Z M 183.92 113.75 183.72 113.74 183.52 113.71 183.33 113.65 183.13 113.57 182.93 113.47 182.73 113.35 182.53 113.20 182.34 113.03 182.14 112.84 181.94 112.63 181.90 111.52 183.05 111.29 183.05 111.43 183.07 111.57 183.09 111.71 183.12 111.85 183.16 112.00 183.21 112.14 183.26 112.28 183.32 112.43 183.39 112.57 183.46 112.72 183.88 112.72 183.94 112.72 184.00 112.71 184.06 112.69 184.12 112.66 184.18 112.63 184.24 112.59 184.30 112.54 184.36 112.48 184.42 112.42 184.48 112.35 184.48 112.03 184.48 111.94 184.47 111.85 184.45 111.76 184.42 111.66 184.38 111.56 184.34 111.45 184.29 111.34 184.23 111.23 184.17 111.11 184.09 110.99 183.68 110.63 182.76 109.83 182.67 109.75 182.59 109.66 182.50 109.57 182.42 109.46 182.33 109.35 182.25 109.23 182.16 109.09 182.08 108.95 181.99 108.80 181.91 108.64 181.91 108.06 181.92 107.88 181.95 107.71 182.00 107.53 182.07 107.36 182.16 107.18 182.27 106.99 182.40 106.81 182.55 106.63 182.72 106.44 182.91 106.25 183.80 106.25 183.98 106.26 184.17 106.29 184.35 106.35 184.53 106.42 184.71 106.52 184.89 106.64 185.06 106.78 185.23 106.94 185.40 107.12 185.57 107.33 185.63 108.24 184.48 108.44 184.47 108.32 184.46 108.20 184.44 108.08 184.42 107.96 184.39 107.84 184.36 107.72 184.32 107.60 184.28 107.48 184.23 107.36 184.17 107.23 183.77 107.23 183.71 107.24 183.65 107.25 183.59 107.27 183.53 107.30 183.47 107.33 183.41 107.37 183.35 107.43 183.28 107.48 183.22 107.55 183.15 107.62 183.15 107.92 183.16 107.99 183.16 108.07 183.18 108.14 183.20 108.22 183.22 108.31 183.25 108.39 183.29 108.48 183.33 108.57 183.38 108.66 183.43 108.75 183.75 109.02 184.66 109.83 184.77 109.92 184.87 110.03 184.98 110.15 185.08 110.27 185.19 110.41 185.30 110.56 185.41 110.73 185.53 110.90 185.64 111.09 185.76 111.28 185.76 111.95 185.75 112.06 185.74 112.17 185.71 112.29 185.68 112.42 185.64 112.55 185.59 112.68 185.53 112.83 185.46 112.98 185.38 113.13 185.30 113.29 185.13 113.38 184.97 113.46 184.82 113.52 184.68 113.58 184.54 113.63 184.40 113.68 184.27 113.71 184.15 113.73 184.03 113.75 183.92 113.75 Z M 189.61 106.33 192.68 106.33 192.68 107.27 190.94 107.27 190.94 109.38 192.31 109.38 192.31 110.31 190.94 110.31 190.94 112.74 192.70 112.74 192.70 113.65 189.61 113.65 189.61 106.33 Z M 196.55 106.33 198.31 106.33 198.54 106.34 198.77 106.37 199.00 106.41 199.23 106.47 199.46 106.55 199.69 106.65 199.92 106.76 200.15 106.89 200.38 107.04 200.60 107.21 200.60 108.27 200.60 108.42 200.59 108.56 200.57 108.71 200.54 108.86 200.50 109.02 200.46 109.17 200.40 109.34 200.34 109.50 200.27 109.67 200.20 109.85 199.70 110.05 200.72 113.65 199.38 113.65 198.51 110.30 197.87 110.30 197.87 113.65 196.55 113.65 196.55 106.33 Z M 198.30 109.47 198.41 109.46 198.52 109.45 198.63 109.42 198.74 109.38 198.85 109.34 198.95 109.28 199.05 109.21 199.15 109.13 199.25 109.04 199.35 108.94 199.35 108.35 199.34 108.23 199.33 108.12 199.31 108.00 199.28 107.89 199.24 107.78 199.19 107.67 199.14 107.56 199.08 107.46 199.00 107.35 198.92 107.24 198.37 107.24 197.87 107.24 197.87 109.47 198.30 109.47 Z M 204.72 106.33 206.04 106.33 206.04 113.65 204.72 113.65 204.72 106.33 Z M 210.24 106.33 213.31 106.33 213.31 107.27 211.57 107.27 211.57 109.38 212.94 109.38 212.94 110.31 211.57 110.31 211.57 112.74 213.33 112.74 213.33 113.65 210.24 113.65 210.24 106.33 Z M 219.02 113.75 218.82 113.74 218.62 113.71 218.42 113.65 218.22 113.57 218.02 113.47 217.83 113.35 217.63 113.20 217.43 113.03 217.23 112.84 217.04 112.63 216.99 111.52 218.14 111.29 218.15 111.43 218.16 111.57 218.19 111.71 218.22 111.85 218.26 112.00 218.30 112.14 218.35 112.28 218.41 112.43 218.48 112.57 218.56 112.72 218.97 112.72 219.03 112.72 219.09 112.71 219.15 112.69 219.22 112.66 219.28 112.63 219.34 112.59 219.40 112.54 219.46 112.48 219.52 112.42 219.58 112.35 219.58 112.03 219.57 111.94 219.56 111.85 219.54 111.76 219.51 111.66 219.48 111.56 219.44 111.45 219.39 111.34 219.33 111.23 219.26 111.11 219.19 110.99 218.77 110.63 217.85 109.83 217.77 109.75 217.68 109.66 217.60 109.57 217.51 109.46 217.43 109.35 217.34 109.23 217.26 109.09 217.17 108.95 217.09 108.80 217.00 108.64 217.00 108.06 217.01 107.88 217.04 107.71 217.09 107.53 217.16 107.36 217.25 107.18 217.36 106.99 217.49 106.81 217.64 106.63 217.81 106.44 218.00 106.25 218.89 106.25 219.08 106.26 219.26 106.29 219.45 106.35 219.63 106.42 219.81 106.52 219.98 106.64 220.16 106.78 220.33 106.94 220.49 107.12 220.66 107.33 220.72 108.24 219.58 108.44 219.57 108.32 219.56 108.20 219.54 108.08 219.51 107.96 219.49 107.84 219.45 107.72 219.41 107.60 219.37 107.48 219.32 107.36 219.27 107.23 218.86 107.23 218.80 107.24 218.75 107.25 218.69 107.27 218.63 107.30 218.56 107.33 218.50 107.37 218.44 107.43 218.38 107.48 218.31 107.55 218.25 107.62 218.25 107.92 218.25 107.99 218.26 108.07 218.27 108.14 218.29 108.22 218.32 108.31 218.35 108.39 218.39 108.48 218.43 108.57 218.47 108.66 218.53 108.75 218.84 109.02 219.76 109.83 219.86 109.92 219.97 110.03 220.07 110.15 220.18 110.27 220.29 110.41 220.40 110.56 220.51 110.73 220.62 110.90 220.74 111.09 220.85 111.28 220.85 111.95 220.85 112.06 220.83 112.17 220.81 112.29 220.78 112.42 220.74 112.55 220.68 112.68 220.62 112.83 220.56 112.98 220.48 113.13 220.39 113.29 220.23 113.38 220.07 113.46 219.92 113.52 219.77 113.58 219.63 113.63 219.50 113.68 219.37 113.71 219.24 113.73 219.13 113.75 219.02 113.75 Z M 229.74 109.66 230.94 109.66 230.94 110.84 229.74 110.84 229.74 109.66 Z M 240.13 106.33 241.45 106.33 241.45 112.74 243.24 112.74 243.24 113.65 240.13 113.65 240.13 106.33 Z M 247.04 106.33 248.35 106.33 248.35 113.65 247.04 113.65 247.04 106.33 Z M 252.21 106.33 253.38 106.33 254.35 111.51 255.26 106.33 256.47 106.33 254.99 113.65 253.68 113.65 252.21 106.33 Z M 260.28 106.33 263.36 106.33 263.36 107.27 261.61 107.27 261.61 109.38 262.99 109.38 262.99 110.31 261.61 110.31 261.61 112.74 263.37 112.74 263.37 113.65 260.28 113.65 260.28 106.33 Z M 273.22 107.32 272.05 107.32 272.05 106.33 275.69 106.33 275.69 107.32 274.55 107.32 274.55 113.65 273.22 113.65 273.22 107.32 Z M 279.08 106.33 280.26 106.33 281.23 111.51 282.14 106.33 283.34 106.33 281.87 113.65 280.56 113.65 279.08 106.33 Z" fill="8891A0" fill-opacity="0.920"/>
</svg>
